<svg xmlns="http://www.w3.org/2000/svg" xmlns:xlink="http://www.w3.org/1999/xlink" width="500" zoomAndPan="magnify" viewBox="0 0 375 374.999991" height="500" preserveAspectRatio="xMidYMid meet" version="1.0"><defs><clipPath id="66ce55a3f3"><path d="M 68 67 L 272 67 L 272 317.964844 L 68 317.964844 Z M 68 67 " clip-rule="nonzero"/></clipPath><clipPath id="e68d5a6711"><path d="M 68 67 L 272 67 L 272 317.964844 L 68 317.964844 Z M 68 67 " clip-rule="nonzero"/></clipPath></defs><g clip-path="url(#66ce55a3f3)"><path fill="#2c4b46" d="M 70.039062 292.425781 C 70.640625 293.246094 71.359375 293.945312 72.167969 294.511719 C 72.167969 294.515625 72.171875 294.515625 72.171875 294.515625 C 72.171875 294.515625 72.171875 294.519531 72.175781 294.519531 C 72.175781 294.519531 72.175781 294.519531 72.179688 294.519531 C 72.179688 294.523438 72.179688 294.523438 72.179688 294.523438 C 72.179688 294.523438 72.183594 294.523438 72.183594 294.523438 C 72.183594 294.527344 72.183594 294.527344 72.1875 294.527344 C 72.1875 294.53125 72.1875 294.53125 72.191406 294.53125 C 72.203125 294.539062 72.210938 294.546875 72.222656 294.554688 L 84.246094 302.859375 C 85.515625 303.738281 86.960938 304.265625 88.546875 304.433594 L 216.714844 317.898438 C 217.0625 317.933594 217.40625 317.949219 217.753906 317.949219 C 223.070312 317.953125 228.105469 313.714844 229.265625 308.058594 L 271.640625 101.234375 C 272.5 97.035156 270.984375 92.894531 267.78125 90.679688 L 255.757812 82.375 C 255.746094 82.371094 255.734375 82.367188 255.722656 82.363281 C 254.476562 81.507812 253.023438 80.964844 251.445312 80.800781 L 123.277344 67.335938 C 117.597656 66.738281 111.972656 71.152344 110.738281 77.171875 L 68.363281 283.996094 C 67.738281 287.046875 68.351562 290.121094 70.039062 292.425781 Z M 70.039062 292.425781 " fill-opacity="1" fill-rule="nonzero"/></g><path fill="#ff6161" d="M 69.585938 284.246094 L 111.960938 77.425781 C 113.003906 72.339844 117.5 68.527344 122.238281 68.527344 C 122.539062 68.527344 122.84375 68.542969 123.148438 68.574219 L 251.316406 82.039062 C 253.597656 82.277344 255.589844 83.414062 256.925781 85.234375 C 258.410156 87.257812 258.941406 89.976562 258.386719 92.6875 L 216.011719 299.511719 C 214.90625 304.917969 209.886719 308.882812 204.824219 308.355469 L 76.65625 294.890625 C 74.371094 294.648438 72.378906 293.511719 71.042969 291.6875 C 69.5625 289.667969 69.03125 286.953125 69.585938 284.246094 Z M 87.125 258.535156 L 83.394531 276.753906 C 83.132812 278.011719 83.386719 279.285156 84.089844 280.246094 C 84.738281 281.128906 85.703125 281.683594 86.808594 281.796875 L 103.9375 283.601562 C 104.078125 283.613281 104.21875 283.621094 104.359375 283.621094 C 106.546875 283.621094 108.621094 281.890625 109.097656 279.578125 L 112.828125 261.355469 C 113.085938 260.097656 112.832031 258.828125 112.128906 257.867188 C 111.480469 256.984375 110.511719 256.429688 109.40625 256.3125 L 92.277344 254.511719 C 89.933594 254.269531 87.625 256.070312 87.125 258.535156 Z M 190.609375 196.296875 C 189.957031 195.414062 188.992188 194.859375 187.882812 194.742188 L 170.753906 192.945312 C 168.414062 192.695312 166.101562 194.5 165.597656 196.964844 L 161.863281 215.1875 C 161.605469 216.441406 161.863281 217.714844 162.566406 218.671875 C 163.214844 219.558594 164.179688 220.113281 165.285156 220.230469 L 182.417969 222.027344 C 182.5625 222.042969 182.703125 222.050781 182.847656 222.050781 C 185.035156 222.050781 187.101562 220.320312 187.574219 218.007812 L 191.308594 199.789062 C 191.566406 198.527344 191.308594 197.257812 190.609375 196.296875 Z M 194.59375 183.550781 L 198.328125 165.328125 C 198.585938 164.070312 198.332031 162.796875 197.628906 161.839844 C 196.980469 160.953125 196.011719 160.402344 194.90625 160.285156 L 177.773438 158.484375 C 175.433594 158.238281 173.121094 160.042969 172.617188 162.507812 L 168.882812 180.726562 C 168.625 181.984375 168.882812 183.257812 169.585938 184.214844 C 170.234375 185.101562 171.203125 185.65625 172.304688 185.769531 L 189.4375 187.570312 C 189.582031 187.585938 189.726562 187.59375 189.867188 187.59375 C 192.054688 187.59375 194.121094 185.863281 194.59375 183.550781 Z M 123.324219 249.359375 C 123.972656 250.242188 124.941406 250.796875 126.050781 250.914062 L 143.183594 252.710938 C 143.328125 252.726562 143.46875 252.734375 143.613281 252.734375 C 145.796875 252.734375 147.863281 251.007812 148.335938 248.699219 L 152.070312 230.476562 C 152.328125 229.21875 152.074219 227.949219 151.371094 226.988281 C 150.722656 226.101562 149.753906 225.550781 148.648438 225.433594 L 131.515625 223.636719 C 129.175781 223.386719 126.863281 225.191406 126.359375 227.65625 L 122.625 245.875 C 122.371094 247.132812 122.621094 248.402344 123.324219 249.359375 Z M 119.339844 261.917969 L 115.605469 280.140625 C 115.347656 281.398438 115.601562 282.667969 116.304688 283.628906 C 116.953125 284.515625 117.921875 285.066406 119.027344 285.183594 L 136.160156 286.980469 C 136.304688 286.996094 136.449219 287.003906 136.589844 287.003906 C 138.777344 287.003906 140.84375 285.273438 141.316406 282.960938 L 145.050781 264.742188 C 145.308594 263.484375 145.050781 262.214844 144.347656 261.253906 C 143.699219 260.367188 142.734375 259.8125 141.628906 259.699219 L 124.496094 257.898438 C 122.160156 257.648438 119.84375 259.457031 119.339844 261.917969 Z M 148.523438 287.207031 C 149.171875 288.09375 150.140625 288.644531 151.246094 288.761719 L 168.378906 290.5625 C 168.519531 290.578125 168.664062 290.585938 168.804688 290.585938 C 170.992188 290.585938 173.058594 288.855469 173.53125 286.542969 L 177.265625 268.320312 C 177.523438 267.0625 177.269531 265.789062 176.566406 264.832031 C 175.917969 263.945312 174.949219 263.394531 173.84375 263.277344 L 156.710938 261.476562 C 154.375 261.226562 152.058594 263.035156 151.554688 265.496094 L 147.824219 283.71875 C 147.566406 284.976562 147.820312 286.246094 148.523438 287.207031 Z M 130.347656 215.09375 C 130.996094 215.980469 131.964844 216.53125 133.070312 216.648438 L 150.203125 218.449219 C 150.34375 218.464844 150.488281 218.472656 150.632812 218.472656 C 152.816406 218.472656 154.882812 216.742188 155.359375 214.429688 L 159.089844 196.207031 C 159.347656 194.953125 159.09375 193.679688 158.390625 192.722656 C 157.738281 191.835938 156.773438 191.28125 155.667969 191.164062 L 138.535156 189.367188 C 136.199219 189.117188 133.886719 190.921875 133.378906 193.386719 L 129.648438 211.605469 C 129.390625 212.863281 129.644531 214.136719 130.347656 215.09375 Z M 137.367188 180.832031 C 138.015625 181.71875 138.984375 182.269531 140.089844 182.386719 L 157.222656 184.1875 C 157.367188 184.203125 157.507812 184.207031 157.652344 184.207031 C 159.835938 184.207031 161.902344 182.476562 162.378906 180.167969 L 166.109375 161.945312 C 166.367188 160.6875 166.113281 159.414062 165.414062 158.457031 C 164.761719 157.570312 163.796875 157.019531 162.6875 156.902344 L 145.554688 155.101562 C 143.21875 154.855469 140.90625 156.660156 140.402344 159.121094 L 136.667969 177.34375 C 136.410156 178.601562 136.664062 179.875 137.367188 180.832031 Z M 183.589844 230.371094 C 182.941406 229.488281 181.972656 228.933594 180.863281 228.820312 L 163.730469 227.019531 C 161.394531 226.769531 159.078125 228.578125 158.574219 231.039062 L 154.84375 249.261719 C 154.585938 250.515625 154.839844 251.785156 155.542969 252.742188 C 156.191406 253.628906 157.160156 254.179688 158.265625 254.296875 L 175.398438 256.097656 C 175.542969 256.113281 175.683594 256.121094 175.828125 256.121094 C 178.015625 256.121094 180.078125 254.390625 180.550781 252.082031 L 184.285156 233.863281 C 184.542969 232.601562 184.289062 231.328125 183.589844 230.371094 Z M 94.144531 224.269531 L 90.410156 242.492188 C 90.152344 243.75 90.410156 245.019531 91.109375 245.976562 C 91.757812 246.859375 92.722656 247.410156 93.824219 247.527344 L 110.960938 249.328125 C 111.105469 249.34375 111.246094 249.351562 111.390625 249.351562 C 113.578125 249.351562 115.644531 247.621094 116.113281 245.316406 L 119.847656 227.09375 C 120.105469 225.832031 119.851562 224.558594 119.148438 223.601562 C 118.503906 222.714844 117.535156 222.164062 116.425781 222.046875 L 99.292969 220.25 C 96.957031 220.011719 94.648438 221.808594 94.144531 224.269531 Z M 101.164062 190 L 97.433594 208.222656 C 97.171875 209.480469 97.425781 210.753906 98.128906 211.710938 C 98.777344 212.597656 99.742188 213.148438 100.847656 213.265625 L 117.976562 215.0625 C 118.121094 215.078125 118.265625 215.085938 118.40625 215.085938 C 120.59375 215.085938 122.660156 213.355469 123.136719 211.046875 L 126.867188 192.824219 C 127.125 191.5625 126.867188 190.289062 126.164062 189.328125 C 125.515625 188.445312 124.550781 187.894531 123.449219 187.777344 L 106.3125 185.980469 C 103.976562 185.734375 101.667969 187.535156 101.164062 190 Z M 108.183594 155.738281 L 104.449219 173.960938 C 104.191406 175.21875 104.449219 176.492188 105.152344 177.449219 C 105.800781 178.332031 106.761719 178.882812 107.863281 179 L 125 180.800781 C 125.140625 180.816406 125.285156 180.824219 125.429688 180.824219 C 127.617188 180.824219 129.683594 179.09375 130.152344 176.777344 L 133.886719 158.5625 C 134.144531 157.300781 133.890625 156.027344 133.191406 155.070312 C 132.542969 154.183594 131.574219 153.632812 130.464844 153.515625 L 113.332031 151.714844 C 111 151.472656 108.6875 153.277344 108.183594 155.738281 Z M 111.488281 139.605469 C 111.144531 141.292969 111.484375 142.992188 112.417969 144.269531 C 113.28125 145.445312 114.566406 146.175781 116.039062 146.332031 L 130.285156 147.828125 C 130.476562 147.847656 130.667969 147.859375 130.859375 147.859375 C 133.785156 147.859375 136.558594 145.535156 137.191406 142.429688 C 137.539062 140.742188 137.199219 139.039062 136.261719 137.761719 C 135.398438 136.585938 134.117188 135.851562 132.648438 135.695312 L 118.398438 134.199219 C 115.269531 133.871094 112.167969 136.296875 111.488281 139.605469 Z M 232.144531 141.667969 C 234.351562 141.667969 236.441406 139.917969 236.921875 137.578125 L 244.777344 99.242188 C 245.039062 97.964844 244.78125 96.679688 244.070312 95.707031 C 243.414062 94.8125 242.4375 94.257812 241.324219 94.140625 L 127.625 82.195312 C 125.265625 81.949219 122.929688 83.773438 122.417969 86.265625 L 114.5625 124.601562 C 114.300781 125.878906 114.558594 127.164062 115.269531 128.132812 C 115.921875 129.027344 116.898438 129.585938 118.015625 129.703125 L 231.714844 141.648438 C 231.855469 141.660156 232 141.667969 232.144531 141.667969 Z M 226.816406 186.9375 L 230.550781 168.714844 C 230.808594 167.457031 230.550781 166.183594 229.851562 165.226562 C 229.203125 164.339844 228.234375 163.789062 227.128906 163.671875 L 209.996094 161.871094 C 207.65625 161.625 205.34375 163.429688 204.839844 165.890625 L 201.105469 184.113281 C 200.847656 185.371094 201.101562 186.644531 201.804688 187.601562 C 202.453125 188.488281 203.421875 189.039062 204.527344 189.15625 L 221.660156 190.957031 C 221.804688 190.96875 221.949219 190.976562 222.089844 190.976562 C 224.277344 190.976562 226.34375 189.246094 226.816406 186.9375 Z M 219.796875 221.199219 L 223.53125 202.976562 C 223.789062 201.71875 223.53125 200.449219 222.828125 199.488281 C 222.179688 198.601562 221.210938 198.050781 220.109375 197.933594 L 202.976562 196.132812 C 200.632812 195.886719 198.324219 197.691406 197.820312 200.15625 L 194.085938 218.375 C 193.828125 219.632812 194.082031 220.90625 194.785156 221.863281 C 195.433594 222.75 196.402344 223.300781 197.507812 223.417969 L 214.640625 225.21875 C 214.785156 225.234375 214.925781 225.242188 215.070312 225.242188 C 217.257812 225.242188 219.324219 223.511719 219.796875 221.199219 Z M 212.777344 255.46875 L 216.507812 237.246094 C 216.765625 235.988281 216.511719 234.71875 215.808594 233.757812 C 215.160156 232.871094 214.191406 232.320312 213.085938 232.203125 L 195.953125 230.40625 C 193.617188 230.160156 191.304688 231.960938 190.796875 234.425781 L 187.066406 252.644531 C 186.808594 253.902344 187.0625 255.171875 187.761719 256.128906 C 188.410156 257.011719 189.378906 257.566406 190.488281 257.683594 L 207.621094 259.480469 C 207.765625 259.496094 207.910156 259.503906 208.050781 259.503906 C 210.238281 259.503906 212.304688 257.777344 212.777344 255.46875 Z M 208.789062 268.023438 C 208.136719 267.136719 207.171875 266.582031 206.066406 266.46875 L 188.933594 264.667969 C 186.597656 264.417969 184.285156 266.226562 183.777344 268.6875 L 180.046875 286.910156 C 179.789062 288.167969 180.042969 289.4375 180.746094 290.398438 C 181.394531 291.28125 182.359375 291.835938 183.46875 291.953125 L 200.601562 293.75 C 200.742188 293.765625 200.886719 293.773438 201.027344 293.773438 C 203.214844 293.773438 205.28125 292.042969 205.757812 289.730469 L 209.488281 271.511719 C 209.746094 270.253906 209.492188 268.980469 208.789062 268.023438 Z M 208.789062 268.023438 " fill-opacity="1" fill-rule="nonzero"/><path fill="#ffffff" d="M 139.824219 108.492188 C 140.375 105.804688 140.457031 103.449219 140.058594 101.117188 C 139.632812 98.75 138.136719 97.15625 135.746094 96.90625 C 133.785156 96.699219 132.039062 97.5625 130.507812 99.535156 C 128.980469 101.464844 127.90625 103.867188 127.308594 106.792969 C 126.695312 109.789062 126.824219 112.203125 127.667969 114.113281 C 128.515625 116.027344 129.910156 117.058594 131.839844 117.261719 C 135.667969 117.660156 139.007812 113 139.824219 108.492188 Z M 231.84375 140.40625 C 233.582031 140.589844 235.3125 139.207031 235.699219 137.328125 L 243.554688 98.988281 C 243.746094 98.058594 243.566406 97.132812 243.0625 96.445312 C 242.617188 95.839844 241.953125 95.460938 241.191406 95.378906 L 127.496094 83.4375 C 125.753906 83.253906 124.027344 84.632812 123.640625 86.515625 L 115.785156 124.851562 C 115.59375 125.785156 115.773438 126.710938 116.277344 127.398438 C 116.71875 128.003906 117.382812 128.382812 118.148438 128.460938 Z M 142.628906 109.175781 C 141.914062 112.667969 140.433594 115.457031 138.226562 117.511719 C 136.023438 119.558594 133.65625 120.441406 131.128906 120.171875 C 128.523438 119.898438 126.554688 118.488281 125.28125 115.992188 C 123.980469 113.453125 123.726562 110.253906 124.519531 106.378906 C 125.335938 102.398438 126.816406 99.261719 128.914062 97.003906 C 131.023438 94.710938 133.484375 93.726562 136.300781 94.019531 C 139.585938 94.367188 141.746094 96.453125 142.566406 99.367188 C 143.390625 102.285156 143.351562 105.652344 142.628906 109.175781 Z M 124.363281 259.136719 C 122.648438 258.957031 120.941406 260.316406 120.5625 262.167969 L 116.828125 280.390625 C 116.640625 281.304688 116.816406 282.214844 117.3125 282.890625 C 117.75 283.492188 118.40625 283.863281 119.160156 283.941406 L 136.292969 285.742188 C 138.011719 285.917969 139.714844 284.5625 140.09375 282.710938 L 143.828125 264.488281 C 144.015625 263.578125 143.839844 262.667969 143.34375 261.988281 C 142.902344 261.390625 142.25 261.015625 141.496094 260.9375 Z M 123 274.882812 L 136.363281 276.289062 C 136.796875 276.332031 137.066406 276.742188 136.972656 277.199219 C 136.878906 277.652344 136.457031 277.992188 136.023438 277.945312 L 122.660156 276.542969 C 122.230469 276.496094 121.957031 276.085938 122.050781 275.632812 C 122.144531 275.175781 122.570312 274.839844 123 274.882812 Z M 124.628906 266.933594 L 137.992188 268.339844 C 138.425781 268.382812 138.695312 268.785156 138.601562 269.25 C 138.507812 269.703125 138.085938 270.042969 137.652344 269.996094 L 124.289062 268.59375 C 123.859375 268.546875 123.585938 268.136719 123.679688 267.679688 C 123.773438 267.21875 124.199219 266.890625 124.628906 266.933594 Z M 124.628906 266.933594 " fill-opacity="1" fill-rule="nonzero"/><path fill="#2c4b46" d="M 216.847656 316.65625 C 221.910156 317.1875 226.933594 313.21875 228.042969 307.808594 L 270.417969 100.984375 C 271.1875 97.21875 269.90625 93.664062 267.070312 91.707031 L 258.84375 86.023438 C 258.890625 86.125 258.941406 86.234375 258.992188 86.347656 C 258.996094 86.355469 258.996094 86.363281 259 86.371094 C 259.019531 86.417969 259.039062 86.460938 259.0625 86.511719 C 259.085938 86.570312 259.113281 86.632812 259.136719 86.695312 C 259.261719 87.007812 259.359375 87.289062 259.433594 87.554688 L 259.453125 87.621094 C 259.523438 87.878906 259.589844 88.152344 259.652344 88.457031 C 259.667969 88.546875 259.683594 88.632812 259.699219 88.722656 C 259.710938 88.804688 259.71875 88.890625 259.730469 88.972656 C 259.734375 88.984375 259.734375 88.992188 259.734375 89.003906 C 259.757812 89.160156 259.785156 89.316406 259.800781 89.476562 L 259.820312 89.679688 C 259.832031 89.796875 259.828125 89.914062 259.835938 90.03125 C 259.835938 90.089844 259.839844 90.152344 259.839844 90.210938 C 259.84375 90.351562 259.859375 90.492188 259.855469 90.636719 C 259.855469 90.6875 259.855469 90.738281 259.851562 90.789062 L 259.847656 90.863281 C 259.84375 91.121094 259.828125 91.382812 259.796875 91.6875 C 259.789062 91.765625 259.78125 91.847656 259.773438 91.925781 C 259.726562 92.308594 259.679688 92.625 259.617188 92.929688 L 217.242188 299.753906 C 217.023438 300.816406 216.667969 301.828125 216.199219 302.773438 C 216.046875 303.082031 215.882812 303.378906 215.707031 303.671875 C 215.699219 303.683594 215.691406 303.699219 215.683594 303.710938 C 215.511719 303.992188 215.332031 304.265625 215.140625 304.53125 C 215.128906 304.554688 215.113281 304.574219 215.097656 304.59375 C 214.910156 304.851562 214.714844 305.105469 214.507812 305.351562 C 214.488281 305.371094 214.46875 305.390625 214.453125 305.414062 C 214.246094 305.65625 214.03125 305.890625 213.808594 306.113281 C 213.789062 306.132812 213.769531 306.148438 213.75 306.167969 C 213.523438 306.394531 213.292969 306.613281 213.050781 306.816406 C 213.039062 306.828125 213.023438 306.835938 213.011719 306.847656 C 212.78125 307.042969 212.542969 307.230469 212.300781 307.410156 C 212.273438 307.429688 212.246094 307.449219 212.21875 307.46875 C 211.980469 307.640625 211.738281 307.800781 211.488281 307.953125 C 211.441406 307.980469 211.394531 308.011719 211.347656 308.039062 C 211.113281 308.183594 210.871094 308.3125 210.625 308.4375 C 210.5625 308.46875 210.503906 308.5 210.441406 308.527344 C 210.203125 308.644531 209.957031 308.753906 209.710938 308.851562 C 209.644531 308.878906 209.574219 308.90625 209.507812 308.933594 C 209.261719 309.027344 209.015625 309.113281 208.761719 309.1875 C 208.691406 309.210938 208.617188 309.230469 208.546875 309.25 C 208.292969 309.320312 208.039062 309.386719 207.785156 309.4375 C 207.714844 309.453125 207.644531 309.464844 207.570312 309.476562 C 207.3125 309.523438 207.046875 309.566406 206.785156 309.59375 C 206.71875 309.597656 206.65625 309.601562 206.59375 309.609375 C 206.328125 309.628906 206.058594 309.644531 205.792969 309.648438 C 205.769531 309.648438 205.75 309.648438 205.726562 309.648438 C 205.695312 309.648438 205.660156 309.644531 205.628906 309.644531 C 205.34375 309.640625 205.058594 309.628906 204.773438 309.601562 C 204.746094 309.597656 204.722656 309.597656 204.695312 309.597656 L 76.726562 296.152344 L 84.953125 301.835938 C 86.050781 302.59375 87.304688 303.050781 88.679688 303.195312 Z M 109.40625 155.988281 L 105.671875 174.210938 C 105.484375 175.125 105.664062 176.035156 106.160156 176.710938 C 106.597656 177.308594 107.25 177.679688 107.996094 177.761719 L 125.128906 179.5625 C 126.851562 179.746094 128.554688 178.382812 128.929688 176.53125 L 132.664062 158.3125 C 132.851562 157.394531 132.675781 156.480469 132.183594 155.808594 C 131.746094 155.210938 131.089844 154.835938 130.335938 154.757812 L 113.203125 152.957031 C 113.101562 152.945312 113 152.941406 112.898438 152.941406 C 111.292969 152.941406 109.761719 154.246094 109.40625 155.988281 Z M 121.464844 161.152344 C 121.316406 161.867188 120.648438 162.394531 119.976562 162.320312 C 119.304688 162.25 118.875 161.613281 119.023438 160.894531 C 119.167969 160.175781 119.835938 159.652344 120.507812 159.722656 C 121.183594 159.792969 121.609375 160.433594 121.464844 161.152344 Z M 116.878906 171.359375 C 117.023438 170.644531 117.691406 170.117188 118.363281 170.191406 C 119.039062 170.261719 119.464844 170.898438 119.320312 171.617188 C 119.171875 172.332031 118.507812 172.859375 117.832031 172.789062 C 117.160156 172.714844 116.730469 172.078125 116.878906 171.359375 Z M 111.710938 165.472656 C 111.800781 165.015625 112.230469 164.679688 112.65625 164.726562 L 126.023438 166.128906 C 126.449219 166.175781 126.722656 166.582031 126.632812 167.039062 C 126.535156 167.5 126.109375 167.832031 125.683594 167.785156 L 112.320312 166.382812 C 111.890625 166.335938 111.613281 165.933594 111.710938 165.472656 Z M 102.386719 190.25 L 98.65625 208.472656 C 98.464844 209.386719 98.640625 210.300781 99.136719 210.976562 C 99.574219 211.574219 100.226562 211.949219 100.980469 212.027344 L 118.109375 213.824219 C 119.824219 214.003906 121.53125 212.644531 121.914062 210.796875 L 125.648438 192.574219 C 125.832031 191.65625 125.65625 190.742188 125.160156 190.066406 C 124.722656 189.46875 124.066406 189.097656 123.316406 189.019531 L 106.183594 187.222656 C 106.082031 187.210938 105.976562 187.207031 105.875 187.207031 C 104.269531 187.207031 102.742188 188.507812 102.386719 190.25 Z M 105.960938 204.40625 L 111.042969 200.40625 L 112.386719 199.347656 L 111.042969 200.40625 L 107.78125 195.53125 C 107.546875 195.175781 107.652344 194.648438 108.019531 194.359375 C 108.207031 194.214844 108.425781 194.15625 108.625 194.175781 C 108.824219 194.195312 109.003906 194.296875 109.125 194.472656 L 112.386719 199.347656 L 117.46875 195.351562 C 117.65625 195.207031 117.871094 195.148438 118.074219 195.167969 C 118.273438 195.1875 118.457031 195.289062 118.578125 195.46875 C 118.8125 195.820312 118.707031 196.347656 118.335938 196.640625 L 113.253906 200.636719 L 116.519531 205.515625 C 116.753906 205.875 116.648438 206.398438 116.277344 206.6875 C 116.089844 206.835938 115.875 206.894531 115.675781 206.875 C 115.472656 206.851562 115.289062 206.75 115.167969 206.570312 L 111.90625 201.695312 L 106.824219 205.695312 C 106.640625 205.839844 106.425781 205.902344 106.226562 205.882812 C 106.027344 205.859375 105.84375 205.757812 105.722656 205.578125 C 105.488281 205.226562 105.59375 204.703125 105.960938 204.40625 Z M 95.367188 224.519531 L 91.632812 242.742188 C 91.445312 243.65625 91.625 244.566406 92.117188 245.238281 C 92.554688 245.835938 93.207031 246.207031 93.957031 246.289062 L 111.089844 248.089844 C 112.808594 248.273438 114.515625 246.914062 114.890625 245.066406 L 118.625 226.84375 C 118.8125 225.925781 118.636719 225.011719 118.144531 224.339844 C 117.707031 223.742188 117.050781 223.367188 116.296875 223.289062 L 99.160156 221.492188 C 99.058594 221.480469 98.953125 221.476562 98.851562 221.476562 C 97.246094 221.476562 95.722656 222.78125 95.367188 224.519531 Z M 97.667969 234.003906 C 97.761719 233.550781 98.191406 233.214844 98.617188 233.257812 L 111.980469 234.664062 C 112.410156 234.707031 112.683594 235.117188 112.589844 235.574219 C 112.496094 236.027344 112.070312 236.363281 111.640625 236.320312 L 98.277344 234.914062 C 97.851562 234.871094 97.574219 234.460938 97.667969 234.003906 Z M 88.347656 258.785156 L 84.613281 277.003906 C 84.425781 277.917969 84.601562 278.832031 85.097656 279.507812 C 85.535156 280.105469 86.1875 280.476562 86.9375 280.558594 L 104.066406 282.359375 C 105.785156 282.535156 107.492188 281.175781 107.875 279.328125 L 111.605469 261.105469 C 111.792969 260.191406 111.617188 259.28125 111.121094 258.605469 C 110.683594 258.007812 110.027344 257.632812 109.273438 257.554688 L 92.144531 255.753906 C 92.039062 255.742188 91.9375 255.738281 91.835938 255.738281 C 90.226562 255.738281 88.703125 257.042969 88.347656 258.785156 Z M 95.875 276.078125 L 97.160156 269.804688 L 97.5 268.140625 L 98.785156 261.871094 C 98.878906 261.410156 99.308594 261.070312 99.734375 261.117188 C 100.164062 261.164062 100.4375 261.570312 100.34375 262.035156 L 99.058594 268.304688 L 104.960938 268.925781 C 105.390625 268.96875 105.664062 269.378906 105.570312 269.835938 C 105.476562 270.296875 105.046875 270.636719 104.621094 270.589844 L 98.71875 269.96875 L 97.433594 276.238281 C 97.339844 276.703125 96.910156 277.039062 96.484375 276.992188 C 96.054688 276.949219 95.78125 276.539062 95.875 276.078125 Z M 90.648438 268.269531 C 90.742188 267.8125 91.167969 267.476562 91.597656 267.519531 L 97.5 268.140625 L 97.160156 269.804688 L 91.257812 269.1875 C 90.828125 269.140625 90.554688 268.730469 90.648438 268.269531 Z M 90.648438 268.269531 " fill-opacity="1" fill-rule="nonzero"/><path fill="#18b08c" d="M 118.269531 135.441406 C 115.757812 135.175781 113.265625 137.15625 112.710938 139.855469 C 112.4375 141.199219 112.695312 142.535156 113.425781 143.53125 C 114.078125 144.417969 115.050781 144.972656 116.167969 145.089844 L 130.414062 146.589844 C 132.929688 146.847656 135.417969 144.875 135.972656 142.179688 C 136.246094 140.835938 135.984375 139.492188 135.253906 138.496094 C 134.605469 137.609375 133.632812 137.054688 132.515625 136.9375 Z M 142.628906 109.175781 C 143.351562 105.652344 143.390625 102.285156 142.566406 99.367188 C 141.746094 96.453125 139.585938 94.367188 136.300781 94.019531 C 133.484375 93.722656 131.023438 94.710938 128.914062 97.003906 C 126.816406 99.261719 125.335938 102.398438 124.519531 106.378906 C 123.726562 110.253906 123.980469 113.453125 125.28125 115.992188 C 126.554688 118.488281 128.523438 119.898438 131.128906 120.171875 C 133.65625 120.4375 136.023438 119.558594 138.226562 117.511719 C 140.433594 115.457031 141.914062 112.667969 142.628906 109.175781 Z M 139.824219 108.492188 C 139.007812 113 135.667969 117.660156 131.839844 117.261719 C 129.910156 117.054688 128.515625 116.027344 127.667969 114.113281 C 126.824219 112.203125 126.695312 109.789062 127.308594 106.792969 C 127.90625 103.867188 128.980469 101.464844 130.507812 99.535156 C 132.039062 97.5625 133.785156 96.699219 135.746094 96.90625 C 138.136719 97.15625 139.632812 98.746094 140.058594 101.117188 C 140.457031 103.449219 140.375 105.804688 139.824219 108.492188 Z M 197.640625 222.179688 C 196.886719 222.097656 196.230469 221.726562 195.792969 221.128906 C 195.296875 220.453125 195.121094 219.539062 195.308594 218.625 L 199.042969 200.40625 C 199.421875 198.554688 201.128906 197.195312 202.84375 197.375 L 219.976562 199.175781 C 220.726562 199.253906 221.382812 199.628906 221.820312 200.226562 C 222.316406 200.902344 222.492188 201.816406 222.308594 202.726562 L 218.574219 220.949219 C 218.195312 222.800781 216.488281 224.15625 214.769531 223.976562 Z M 137.890625 177.59375 L 141.621094 159.371094 C 142.003906 157.519531 143.707031 156.160156 145.425781 156.34375 L 162.558594 158.140625 C 163.308594 158.222656 163.964844 158.59375 164.40625 159.191406 C 164.898438 159.867188 165.074219 160.78125 164.886719 161.695312 L 161.15625 179.914062 C 160.777344 181.765625 159.070312 183.125 157.351562 182.945312 L 140.21875 181.144531 C 139.46875 181.066406 138.8125 180.695312 138.371094 180.09375 C 137.878906 179.421875 137.703125 178.507812 137.890625 177.59375 Z M 172.4375 184.53125 C 171.683594 184.453125 171.03125 184.078125 170.589844 183.476562 C 170.09375 182.800781 169.917969 181.890625 170.105469 180.976562 L 173.839844 162.757812 C 174.195312 161.015625 175.722656 159.710938 177.332031 159.710938 C 177.4375 159.710938 177.539062 159.714844 177.640625 159.726562 L 194.773438 161.527344 C 195.527344 161.605469 196.183594 161.980469 196.625 162.578125 C 197.117188 163.25 197.292969 164.164062 197.105469 165.078125 L 193.371094 183.300781 C 192.992188 185.152344 191.285156 186.507812 189.570312 186.332031 Z M 204.660156 187.914062 C 203.90625 187.835938 203.25 187.464844 202.8125 186.863281 C 202.316406 186.191406 202.140625 185.277344 202.328125 184.363281 L 206.0625 166.140625 C 206.441406 164.289062 208.148438 162.929688 209.863281 163.113281 L 226.996094 164.910156 C 227.75 164.992188 228.40625 165.363281 228.84375 165.960938 C 229.339844 166.636719 229.515625 167.550781 229.328125 168.464844 L 225.59375 186.683594 C 225.214844 188.535156 223.507812 189.894531 221.789062 189.714844 Z M 130.871094 211.855469 L 134.601562 193.636719 C 134.980469 191.785156 136.6875 190.425781 138.40625 190.605469 L 155.539062 192.40625 C 156.289062 192.484375 156.945312 192.859375 157.382812 193.457031 C 157.878906 194.132812 158.054688 195.042969 157.867188 195.957031 L 154.136719 214.179688 C 153.757812 216.03125 152.050781 217.386719 150.332031 217.207031 L 133.199219 215.410156 C 132.449219 215.328125 131.792969 214.957031 131.355469 214.359375 C 130.859375 213.683594 130.683594 212.769531 130.871094 211.855469 Z M 190.085938 199.535156 L 186.351562 217.757812 C 185.972656 219.609375 184.265625 220.964844 182.546875 220.789062 L 165.417969 218.988281 C 164.667969 218.910156 164.011719 218.535156 163.570312 217.9375 C 163.074219 217.261719 162.898438 216.347656 163.085938 215.4375 L 166.820312 197.214844 C 167.199219 195.363281 168.90625 194.007812 170.621094 194.183594 L 187.753906 195.984375 C 188.507812 196.0625 189.164062 196.4375 189.601562 197.035156 C 190.097656 197.710938 190.273438 198.621094 190.085938 199.535156 Z M 183.0625 233.613281 L 179.328125 251.832031 C 178.953125 253.679688 177.246094 255.035156 175.527344 254.855469 L 158.398438 253.054688 C 157.644531 252.976562 156.988281 252.601562 156.546875 252.003906 C 156.054688 251.328125 155.878906 250.421875 156.066406 249.511719 L 159.796875 231.289062 C 160.152344 229.550781 161.683594 228.242188 163.292969 228.242188 C 163.394531 228.242188 163.496094 228.25 163.601562 228.257812 L 180.734375 230.058594 C 181.488281 230.136719 182.144531 230.511719 182.582031 231.109375 C 183.074219 231.785156 183.25 232.695312 183.0625 233.613281 Z M 123.847656 246.128906 L 127.582031 227.90625 C 127.9375 226.164062 129.46875 224.859375 131.078125 224.859375 C 131.179688 224.859375 131.28125 224.863281 131.386719 224.875 L 148.515625 226.675781 C 149.269531 226.753906 149.925781 227.128906 150.363281 227.726562 C 150.859375 228.402344 151.035156 229.3125 150.847656 230.226562 L 147.113281 248.449219 C 146.734375 250.296875 145.03125 251.648438 143.3125 251.472656 L 126.179688 249.671875 C 125.425781 249.59375 124.769531 249.21875 124.332031 248.621094 C 123.835938 247.949219 123.660156 247.039062 123.847656 246.128906 Z M 190.621094 256.441406 C 189.863281 256.363281 189.207031 255.988281 188.769531 255.390625 C 188.277344 254.71875 188.101562 253.808594 188.289062 252.894531 L 192.019531 234.675781 C 192.378906 232.933594 193.90625 231.628906 195.515625 231.628906 C 195.617188 231.628906 195.71875 231.632812 195.824219 231.644531 L 212.957031 233.445312 C 213.707031 233.523438 214.363281 233.894531 214.804688 234.496094 C 215.296875 235.167969 215.472656 236.082031 215.285156 236.996094 L 211.554688 255.21875 C 211.175781 257.0625 209.472656 258.421875 207.753906 258.238281 Z M 107.78125 195.53125 C 107.546875 195.175781 107.652344 194.648438 108.019531 194.359375 C 108.207031 194.214844 108.425781 194.15625 108.625 194.175781 C 108.824219 194.195312 109.003906 194.296875 109.125 194.472656 L 112.386719 199.347656 L 111.042969 200.40625 Z M 105.960938 204.40625 L 111.042969 200.40625 L 112.386719 199.347656 L 117.46875 195.351562 C 117.65625 195.207031 117.871094 195.148438 118.074219 195.167969 C 118.273438 195.1875 118.457031 195.289062 118.578125 195.46875 C 118.8125 195.820312 118.707031 196.347656 118.335938 196.640625 L 113.253906 200.636719 L 116.519531 205.515625 C 116.753906 205.875 116.648438 206.398438 116.277344 206.6875 C 116.089844 206.835938 115.875 206.894531 115.675781 206.875 C 115.472656 206.851562 115.289062 206.75 115.167969 206.570312 L 111.90625 201.695312 L 106.824219 205.695312 C 106.640625 205.84375 106.425781 205.902344 106.226562 205.882812 C 106.027344 205.859375 105.84375 205.757812 105.722656 205.578125 C 105.488281 205.226562 105.59375 204.703125 105.960938 204.40625 Z M 208.265625 271.257812 L 204.535156 289.480469 C 204.15625 291.332031 202.449219 292.691406 200.730469 292.511719 L 183.597656 290.710938 C 182.847656 290.632812 182.191406 290.257812 181.75 289.660156 C 181.257812 288.984375 181.082031 288.074219 181.269531 287.160156 L 185 268.9375 C 185.378906 267.085938 187.085938 265.730469 188.804688 265.910156 L 205.9375 267.707031 C 206.6875 267.785156 207.34375 268.160156 207.78125 268.761719 C 208.277344 269.4375 208.453125 270.347656 208.265625 271.257812 Z M 149.046875 283.96875 L 152.777344 265.746094 C 153.132812 264.007812 154.664062 262.703125 156.273438 262.703125 C 156.375 262.703125 156.476562 262.707031 156.582031 262.71875 L 173.714844 264.519531 C 174.464844 264.597656 175.121094 264.96875 175.558594 265.570312 C 176.054688 266.242188 176.230469 267.15625 176.042969 268.070312 L 172.308594 286.292969 C 171.929688 288.144531 170.226562 289.5 168.507812 289.320312 L 151.375 287.523438 C 150.625 287.441406 149.96875 287.070312 149.53125 286.46875 C 149.035156 285.792969 148.859375 284.882812 149.046875 283.96875 Z M 136.972656 277.199219 C 136.878906 277.652344 136.457031 277.992188 136.023438 277.945312 L 122.660156 276.542969 C 122.230469 276.496094 121.957031 276.085938 122.050781 275.632812 C 122.144531 275.175781 122.570312 274.839844 123 274.882812 L 136.363281 276.289062 C 136.796875 276.332031 137.066406 276.742188 136.972656 277.199219 Z M 98.617188 233.257812 L 111.980469 234.664062 C 112.410156 234.707031 112.683594 235.117188 112.589844 235.574219 C 112.496094 236.027344 112.070312 236.363281 111.640625 236.320312 L 98.277344 234.914062 C 97.851562 234.871094 97.574219 234.460938 97.667969 234.003906 C 97.761719 233.550781 98.191406 233.214844 98.617188 233.257812 Z M 91.597656 267.519531 L 97.5 268.140625 L 97.160156 269.804688 L 91.257812 269.1875 C 90.828125 269.140625 90.554688 268.730469 90.648438 268.269531 C 90.742188 267.8125 91.167969 267.476562 91.597656 267.519531 Z M 97.160156 269.804688 L 97.5 268.140625 L 98.785156 261.871094 C 98.878906 261.410156 99.308594 261.070312 99.734375 261.117188 C 100.164062 261.160156 100.4375 261.570312 100.34375 262.035156 L 99.058594 268.304688 L 104.960938 268.925781 C 105.390625 268.96875 105.664062 269.378906 105.570312 269.835938 C 105.476562 270.296875 105.046875 270.632812 104.621094 270.589844 L 98.71875 269.96875 L 97.433594 276.238281 C 97.339844 276.703125 96.910156 277.039062 96.484375 276.992188 C 96.054688 276.949219 95.78125 276.539062 95.875 276.074219 Z M 112.660156 164.726562 L 126.023438 166.128906 C 126.449219 166.175781 126.726562 166.582031 126.632812 167.039062 C 126.535156 167.5 126.109375 167.832031 125.683594 167.785156 L 112.320312 166.382812 C 111.890625 166.335938 111.617188 165.933594 111.710938 165.472656 C 111.800781 165.015625 112.230469 164.679688 112.660156 164.726562 Z M 119.976562 162.320312 C 119.304688 162.25 118.875 161.613281 119.023438 160.894531 C 119.167969 160.175781 119.835938 159.652344 120.507812 159.722656 C 121.183594 159.792969 121.609375 160.433594 121.464844 161.152344 C 121.316406 161.867188 120.648438 162.394531 119.976562 162.320312 Z M 118.363281 170.191406 C 119.039062 170.261719 119.464844 170.898438 119.320312 171.617188 C 119.171875 172.332031 118.507812 172.859375 117.832031 172.789062 C 117.160156 172.714844 116.730469 172.078125 116.878906 171.359375 C 117.023438 170.644531 117.691406 170.117188 118.363281 170.191406 Z M 137.992188 268.339844 C 138.425781 268.382812 138.695312 268.785156 138.601562 269.25 C 138.507812 269.703125 138.085938 270.042969 137.652344 269.996094 L 124.289062 268.59375 C 123.859375 268.546875 123.585938 268.136719 123.679688 267.679688 C 123.773438 267.21875 124.199219 266.890625 124.628906 266.933594 Z M 137.992188 268.339844 " fill-opacity="1" fill-rule="nonzero"/><g clip-path="url(#e68d5a6711)"><path fill="#2c4b46" d="M 68.363281 283.996094 L 110.738281 77.171875 C 111.972656 71.152344 117.597656 66.738281 123.277344 67.335938 L 251.445312 80.800781 C 253.023438 80.964844 254.476562 81.507812 255.722656 82.363281 C 255.734375 82.367188 255.746094 82.371094 255.757812 82.375 L 267.78125 90.679688 C 270.984375 92.894531 272.5 97.035156 271.640625 101.234375 L 229.265625 308.058594 C 228.109375 313.714844 223.070312 317.953125 217.753906 317.953125 C 217.410156 317.953125 217.0625 317.933594 216.71875 317.898438 L 88.546875 304.433594 C 86.964844 304.265625 85.515625 303.738281 84.246094 302.859375 L 72.222656 294.554688 C 72.210938 294.546875 72.203125 294.539062 72.195312 294.535156 C 72.191406 294.535156 72.191406 294.53125 72.191406 294.53125 C 72.191406 294.53125 72.1875 294.53125 72.1875 294.53125 C 72.1875 294.53125 72.1875 294.53125 72.1875 294.527344 C 72.1875 294.527344 72.183594 294.527344 72.183594 294.527344 C 72.183594 294.527344 72.183594 294.523438 72.179688 294.523438 C 72.175781 294.519531 72.175781 294.519531 72.175781 294.519531 C 72.175781 294.519531 72.171875 294.519531 72.171875 294.515625 C 72.171875 294.515625 72.171875 294.515625 72.167969 294.515625 C 72.167969 294.515625 72.167969 294.511719 72.167969 294.511719 C 71.359375 293.945312 70.640625 293.25 70.039062 292.425781 C 68.351562 290.121094 67.738281 287.046875 68.363281 283.996094 Z M 228.042969 307.808594 L 270.417969 100.984375 C 271.1875 97.21875 269.90625 93.664062 267.070312 91.707031 L 258.84375 86.023438 C 258.890625 86.125 258.941406 86.234375 258.992188 86.347656 C 258.996094 86.355469 258.996094 86.363281 259 86.371094 C 259.019531 86.417969 259.039062 86.460938 259.0625 86.511719 C 259.085938 86.570312 259.113281 86.632812 259.136719 86.695312 C 259.261719 87.007812 259.359375 87.289062 259.433594 87.554688 L 259.453125 87.621094 C 259.523438 87.878906 259.589844 88.152344 259.652344 88.457031 C 259.667969 88.546875 259.683594 88.632812 259.699219 88.722656 C 259.710938 88.804688 259.71875 88.890625 259.730469 88.972656 C 259.734375 88.984375 259.734375 88.992188 259.734375 89.003906 C 259.757812 89.160156 259.785156 89.316406 259.800781 89.476562 L 259.820312 89.679688 C 259.832031 89.796875 259.828125 89.914062 259.835938 90.03125 C 259.835938 90.089844 259.839844 90.152344 259.839844 90.210938 C 259.84375 90.351562 259.859375 90.492188 259.855469 90.636719 C 259.855469 90.6875 259.855469 90.738281 259.851562 90.789062 L 259.847656 90.863281 C 259.84375 91.121094 259.828125 91.382812 259.796875 91.6875 C 259.789062 91.765625 259.78125 91.847656 259.773438 91.925781 C 259.726562 92.308594 259.679688 92.625 259.617188 92.929688 L 217.242188 299.753906 C 217.023438 300.816406 216.667969 301.828125 216.199219 302.773438 C 216.046875 303.082031 215.882812 303.378906 215.707031 303.671875 C 215.699219 303.683594 215.691406 303.699219 215.683594 303.710938 C 215.511719 303.992188 215.332031 304.265625 215.140625 304.53125 C 215.128906 304.554688 215.113281 304.574219 215.097656 304.59375 C 214.910156 304.851562 214.714844 305.105469 214.507812 305.351562 C 214.488281 305.371094 214.46875 305.390625 214.453125 305.414062 C 214.246094 305.65625 214.03125 305.890625 213.808594 306.113281 C 213.789062 306.132812 213.769531 306.148438 213.75 306.167969 C 213.523438 306.394531 213.292969 306.613281 213.050781 306.816406 C 213.039062 306.828125 213.023438 306.835938 213.011719 306.847656 C 212.78125 307.042969 212.542969 307.230469 212.300781 307.410156 C 212.273438 307.429688 212.246094 307.449219 212.21875 307.46875 C 211.980469 307.640625 211.738281 307.800781 211.488281 307.953125 C 211.441406 307.980469 211.394531 308.011719 211.347656 308.039062 C 211.113281 308.183594 210.871094 308.3125 210.625 308.4375 C 210.5625 308.46875 210.503906 308.5 210.441406 308.527344 C 210.203125 308.644531 209.957031 308.753906 209.710938 308.851562 C 209.644531 308.878906 209.574219 308.90625 209.507812 308.933594 C 209.261719 309.027344 209.015625 309.113281 208.761719 309.1875 C 208.691406 309.210938 208.617188 309.230469 208.546875 309.25 C 208.292969 309.320312 208.039062 309.386719 207.785156 309.4375 C 207.714844 309.453125 207.644531 309.464844 207.570312 309.476562 C 207.3125 309.523438 207.046875 309.566406 206.785156 309.59375 C 206.71875 309.597656 206.65625 309.601562 206.59375 309.609375 C 206.328125 309.628906 206.058594 309.644531 205.792969 309.648438 C 205.769531 309.648438 205.75 309.648438 205.726562 309.648438 C 205.695312 309.648438 205.660156 309.644531 205.628906 309.644531 C 205.34375 309.640625 205.058594 309.628906 204.773438 309.601562 C 204.746094 309.597656 204.722656 309.597656 204.695312 309.597656 L 76.726562 296.152344 L 84.953125 301.835938 C 86.050781 302.59375 87.304688 303.050781 88.679688 303.195312 L 216.847656 316.660156 C 221.910156 317.1875 226.933594 313.21875 228.042969 307.808594 Z M 76.65625 294.890625 L 204.824219 308.355469 C 209.886719 308.882812 214.90625 304.917969 216.011719 299.511719 L 258.386719 92.6875 C 258.941406 89.976562 258.410156 87.257812 256.925781 85.234375 C 255.589844 83.414062 253.597656 82.277344 251.316406 82.039062 L 123.148438 68.574219 C 122.84375 68.542969 122.539062 68.527344 122.234375 68.527344 C 117.5 68.527344 113.003906 72.339844 111.960938 77.421875 L 69.585938 284.246094 C 69.03125 286.953125 69.5625 289.664062 71.042969 291.6875 C 72.378906 293.511719 74.371094 294.648438 76.65625 294.890625 Z M 115.269531 128.132812 C 114.558594 127.164062 114.300781 125.878906 114.5625 124.601562 L 122.417969 86.265625 C 122.929688 83.773438 125.265625 81.949219 127.625 82.195312 L 241.324219 94.140625 C 242.4375 94.257812 243.414062 94.8125 244.070312 95.707031 C 244.78125 96.679688 245.039062 97.964844 244.777344 99.238281 L 236.921875 137.578125 C 236.441406 139.917969 234.355469 141.667969 232.144531 141.667969 C 232 141.667969 231.859375 141.660156 231.714844 141.644531 L 118.015625 129.703125 C 116.898438 129.585938 115.921875 129.027344 115.269531 128.132812 Z M 235.699219 137.328125 L 243.554688 98.988281 C 243.746094 98.058594 243.566406 97.132812 243.0625 96.445312 C 242.617188 95.839844 241.953125 95.460938 241.191406 95.378906 L 127.496094 83.4375 C 125.753906 83.253906 124.027344 84.632812 123.640625 86.515625 L 115.785156 124.851562 C 115.59375 125.785156 115.773438 126.710938 116.277344 127.398438 C 116.71875 128.003906 117.382812 128.382812 118.148438 128.460938 L 231.84375 140.40625 C 233.582031 140.589844 235.3125 139.207031 235.699219 137.328125 Z M 124.496094 257.898438 L 141.628906 259.699219 C 142.734375 259.8125 143.699219 260.367188 144.347656 261.253906 C 145.050781 262.214844 145.308594 263.484375 145.050781 264.742188 L 141.316406 282.960938 C 140.84375 285.273438 138.777344 287.003906 136.589844 287.003906 C 136.449219 287.003906 136.304688 286.996094 136.160156 286.980469 L 119.027344 285.183594 C 117.921875 285.066406 116.953125 284.515625 116.304688 283.628906 C 115.605469 282.667969 115.347656 281.398438 115.605469 280.140625 L 119.339844 261.917969 C 119.84375 259.457031 122.160156 257.648438 124.496094 257.898438 Z M 120.5625 262.167969 L 116.828125 280.390625 C 116.640625 281.304688 116.816406 282.214844 117.3125 282.890625 C 117.75 283.492188 118.40625 283.863281 119.160156 283.941406 L 136.292969 285.742188 C 138.011719 285.917969 139.714844 284.5625 140.09375 282.710938 L 143.828125 264.488281 C 144.015625 263.578125 143.839844 262.667969 143.34375 261.988281 C 142.902344 261.390625 142.25 261.015625 141.496094 260.9375 L 124.363281 259.136719 C 122.648438 258.957031 120.941406 260.316406 120.5625 262.167969 Z M 113.332031 151.714844 L 130.464844 153.515625 C 131.574219 153.632812 132.542969 154.183594 133.191406 155.070312 C 133.890625 156.027344 134.144531 157.300781 133.886719 158.5625 L 130.152344 176.777344 C 129.683594 179.09375 127.617188 180.824219 125.429688 180.824219 C 125.285156 180.824219 125.144531 180.816406 125 180.800781 L 107.863281 179 C 106.761719 178.882812 105.800781 178.332031 105.152344 177.449219 C 104.449219 176.492188 104.195312 175.21875 104.449219 173.960938 L 108.183594 155.738281 C 108.6875 153.277344 111 151.472656 113.332031 151.714844 Z M 106.160156 176.710938 C 106.597656 177.308594 107.25 177.679688 107.996094 177.761719 L 125.128906 179.5625 C 126.851562 179.746094 128.554688 178.382812 128.929688 176.53125 L 132.664062 158.3125 C 132.851562 157.394531 132.675781 156.480469 132.183594 155.808594 C 131.742188 155.210938 131.089844 154.835938 130.335938 154.757812 L 113.199219 152.957031 C 113.101562 152.945312 113 152.941406 112.898438 152.941406 C 111.292969 152.941406 109.761719 154.25 109.40625 155.988281 L 105.671875 174.210938 C 105.484375 175.125 105.664062 176.035156 106.160156 176.710938 Z M 106.3125 185.980469 L 123.449219 187.777344 C 124.550781 187.894531 125.515625 188.445312 126.164062 189.328125 C 126.867188 190.289062 127.125 191.5625 126.867188 192.824219 L 123.136719 211.046875 C 122.660156 213.355469 120.59375 215.085938 118.40625 215.085938 C 118.265625 215.085938 118.121094 215.078125 117.976562 215.0625 L 100.847656 213.265625 C 99.742188 213.148438 98.777344 212.597656 98.128906 211.710938 C 97.425781 210.753906 97.171875 209.480469 97.433594 208.222656 L 101.164062 190 C 101.667969 187.535156 103.976562 185.734375 106.3125 185.980469 Z M 99.136719 210.976562 C 99.574219 211.574219 100.226562 211.949219 100.980469 212.027344 L 118.109375 213.824219 C 119.824219 214.003906 121.53125 212.644531 121.914062 210.796875 L 125.648438 192.574219 C 125.832031 191.65625 125.65625 190.742188 125.160156 190.066406 C 124.722656 189.46875 124.066406 189.097656 123.316406 189.019531 L 106.183594 187.222656 C 106.082031 187.210938 105.976562 187.207031 105.875 187.207031 C 104.269531 187.207031 102.742188 188.511719 102.390625 190.25 L 98.65625 208.472656 C 98.464844 209.386719 98.640625 210.300781 99.136719 210.976562 Z M 99.292969 220.253906 L 116.425781 222.046875 C 117.535156 222.164062 118.5 222.714844 119.148438 223.601562 C 119.851562 224.558594 120.105469 225.832031 119.847656 227.09375 L 116.113281 245.316406 C 115.644531 247.625 113.578125 249.351562 111.390625 249.351562 C 111.246094 249.351562 111.105469 249.34375 110.960938 249.328125 L 93.824219 247.527344 C 92.722656 247.410156 91.757812 246.859375 91.109375 245.976562 C 90.410156 245.019531 90.152344 243.75 90.410156 242.492188 L 94.144531 224.269531 C 94.648438 221.808594 96.957031 220.011719 99.292969 220.253906 Z M 92.117188 245.238281 C 92.554688 245.835938 93.207031 246.207031 93.957031 246.285156 L 111.089844 248.085938 C 112.808594 248.273438 114.515625 246.914062 114.890625 245.066406 L 118.625 226.84375 C 118.8125 225.925781 118.636719 225.011719 118.144531 224.335938 C 117.703125 223.738281 117.046875 223.367188 116.296875 223.289062 L 99.160156 221.492188 C 99.058594 221.480469 98.953125 221.476562 98.851562 221.476562 C 97.246094 221.476562 95.722656 222.78125 95.367188 224.519531 L 91.632812 242.742188 C 91.445312 243.65625 91.625 244.566406 92.117188 245.238281 Z M 92.273438 254.511719 L 109.402344 256.3125 C 110.511719 256.429688 111.480469 256.984375 112.128906 257.867188 C 112.828125 258.828125 113.085938 260.097656 112.828125 261.355469 L 109.09375 279.578125 C 108.621094 281.890625 106.546875 283.621094 104.359375 283.621094 C 104.21875 283.621094 104.078125 283.613281 103.9375 283.601562 L 86.808594 281.800781 C 85.703125 281.683594 84.738281 281.128906 84.089844 280.246094 C 83.386719 279.285156 83.132812 278.011719 83.390625 276.753906 L 87.125 258.535156 C 87.625 256.070312 89.933594 254.269531 92.273438 254.511719 Z M 84.617188 277.003906 C 84.425781 277.917969 84.601562 278.832031 85.097656 279.507812 C 85.535156 280.105469 86.1875 280.480469 86.941406 280.558594 L 104.066406 282.359375 C 105.785156 282.535156 107.492188 281.175781 107.875 279.328125 L 111.605469 261.105469 C 111.792969 260.191406 111.617188 259.28125 111.121094 258.605469 C 110.683594 258.007812 110.027344 257.632812 109.273438 257.554688 L 92.144531 255.753906 C 92.039062 255.742188 91.9375 255.738281 91.835938 255.738281 C 90.230469 255.738281 88.703125 257.042969 88.347656 258.785156 Z M 118.398438 134.199219 L 132.644531 135.695312 C 134.117188 135.851562 135.398438 136.585938 136.261719 137.761719 C 137.199219 139.039062 137.539062 140.742188 137.191406 142.429688 C 136.558594 145.535156 133.785156 147.859375 130.859375 147.859375 C 130.667969 147.859375 130.476562 147.847656 130.285156 147.828125 L 116.035156 146.332031 C 114.566406 146.175781 113.28125 145.445312 112.417969 144.269531 C 111.484375 142.992188 111.144531 141.292969 111.488281 139.605469 C 112.167969 136.296875 115.269531 133.871094 118.398438 134.199219 Z M 112.710938 139.855469 C 112.4375 141.199219 112.695312 142.535156 113.425781 143.53125 C 114.078125 144.417969 115.050781 144.972656 116.167969 145.089844 L 130.414062 146.585938 C 132.929688 146.847656 135.417969 144.875 135.972656 142.179688 C 136.246094 140.835938 135.984375 139.492188 135.253906 138.496094 C 134.605469 137.609375 133.632812 137.054688 132.515625 136.9375 L 118.269531 135.441406 C 115.757812 135.175781 113.265625 137.15625 112.710938 139.855469 Z M 214.640625 225.21875 L 197.507812 223.417969 C 196.402344 223.300781 195.433594 222.75 194.785156 221.863281 C 194.082031 220.90625 193.828125 219.632812 194.085938 218.375 L 197.820312 200.15625 C 198.324219 197.691406 200.632812 195.886719 202.976562 196.132812 L 220.109375 197.933594 C 221.210938 198.050781 222.179688 198.601562 222.828125 199.488281 C 223.53125 200.449219 223.789062 201.71875 223.53125 202.976562 L 219.796875 221.199219 C 219.324219 223.511719 217.257812 225.242188 215.070312 225.242188 C 214.925781 225.242188 214.785156 225.234375 214.640625 225.21875 Z M 218.574219 220.949219 L 222.308594 202.726562 C 222.496094 201.8125 222.316406 200.902344 221.824219 200.226562 C 221.382812 199.625 220.726562 199.253906 219.976562 199.175781 L 202.84375 197.375 C 201.128906 197.191406 199.421875 198.554688 199.042969 200.40625 L 195.308594 218.625 C 195.121094 219.539062 195.296875 220.453125 195.792969 221.128906 C 196.230469 221.726562 196.886719 222.097656 197.640625 222.179688 L 214.773438 223.976562 C 216.488281 224.15625 218.195312 222.800781 218.574219 220.949219 Z M 140.398438 159.121094 C 140.90625 156.660156 143.21875 154.855469 145.554688 155.101562 L 162.6875 156.902344 C 163.796875 157.019531 164.761719 157.570312 165.410156 158.457031 C 166.113281 159.414062 166.367188 160.6875 166.109375 161.945312 L 162.378906 180.167969 C 161.902344 182.476562 159.835938 184.207031 157.652344 184.207031 C 157.507812 184.207031 157.363281 184.199219 157.222656 184.1875 L 140.089844 182.386719 C 138.984375 182.269531 138.015625 181.71875 137.367188 180.832031 C 136.664062 179.875 136.410156 178.601562 136.667969 177.34375 Z M 140.21875 181.144531 L 157.351562 182.945312 C 159.070312 183.125 160.777344 181.765625 161.15625 179.914062 L 164.890625 161.695312 C 165.074219 160.78125 164.898438 159.867188 164.40625 159.195312 C 163.964844 158.59375 163.3125 158.222656 162.558594 158.140625 L 145.425781 156.34375 C 143.707031 156.164062 142.003906 157.519531 141.621094 159.371094 L 137.890625 177.59375 C 137.703125 178.507812 137.878906 179.421875 138.375 180.097656 C 138.8125 180.695312 139.46875 181.066406 140.21875 181.144531 Z M 189.4375 187.570312 L 172.304688 185.769531 C 171.199219 185.65625 170.234375 185.101562 169.585938 184.214844 C 168.882812 183.253906 168.625 181.984375 168.882812 180.726562 L 172.617188 162.507812 C 173.121094 160.042969 175.433594 158.238281 177.773438 158.484375 L 194.902344 160.285156 C 196.011719 160.402344 196.980469 160.953125 197.628906 161.839844 C 198.332031 162.796875 198.585938 164.070312 198.328125 165.328125 L 194.59375 183.550781 C 194.121094 185.863281 192.050781 187.59375 189.867188 187.59375 C 189.722656 187.59375 189.582031 187.585938 189.4375 187.570312 Z M 193.371094 183.300781 L 197.105469 165.078125 C 197.292969 164.164062 197.117188 163.25 196.621094 162.578125 C 196.183594 161.980469 195.527344 161.605469 194.773438 161.527344 L 177.640625 159.726562 C 177.539062 159.714844 177.433594 159.710938 177.332031 159.710938 C 175.722656 159.710938 174.195312 161.015625 173.839844 162.757812 L 170.105469 180.976562 C 169.917969 181.890625 170.09375 182.800781 170.589844 183.476562 C 171.03125 184.078125 171.683594 184.449219 172.4375 184.53125 L 189.566406 186.328125 C 191.285156 186.507812 192.992188 185.152344 193.371094 183.300781 Z M 221.660156 190.957031 L 204.527344 189.15625 C 203.421875 189.039062 202.453125 188.488281 201.804688 187.601562 C 201.101562 186.644531 200.847656 185.371094 201.105469 184.113281 L 204.839844 165.890625 C 205.34375 163.429688 207.65625 161.625 209.996094 161.871094 L 227.125 163.671875 C 228.234375 163.789062 229.199219 164.339844 229.851562 165.226562 C 230.550781 166.183594 230.808594 167.457031 230.550781 168.714844 L 226.816406 186.9375 C 226.34375 189.246094 224.273438 190.976562 222.089844 190.976562 C 221.949219 190.976562 221.804688 190.96875 221.660156 190.957031 Z M 225.59375 186.683594 L 229.328125 168.464844 C 229.515625 167.550781 229.339844 166.636719 228.84375 165.960938 C 228.40625 165.363281 227.75 164.988281 226.996094 164.910156 L 209.863281 163.113281 C 208.148438 162.929688 206.441406 164.289062 206.0625 166.140625 L 202.328125 184.363281 C 202.140625 185.277344 202.316406 186.1875 202.8125 186.863281 C 203.25 187.464844 203.90625 187.835938 204.660156 187.914062 L 221.792969 189.714844 C 223.511719 189.894531 225.214844 188.535156 225.59375 186.683594 Z M 133.378906 193.382812 C 133.886719 190.921875 136.199219 189.117188 138.535156 189.363281 L 155.667969 191.164062 C 156.773438 191.28125 157.742188 191.832031 158.390625 192.71875 C 159.09375 193.679688 159.347656 194.949219 159.089844 196.207031 L 155.359375 214.429688 C 154.882812 216.742188 152.816406 218.472656 150.632812 218.472656 C 150.488281 218.472656 150.347656 218.464844 150.203125 218.449219 L 133.070312 216.648438 C 131.964844 216.53125 130.996094 215.980469 130.347656 215.09375 C 129.644531 214.136719 129.390625 212.863281 129.648438 211.605469 Z M 133.199219 215.410156 L 150.332031 217.207031 C 152.050781 217.386719 153.757812 216.03125 154.136719 214.179688 L 157.867188 195.957031 C 158.054688 195.042969 157.878906 194.132812 157.382812 193.457031 C 156.945312 192.859375 156.289062 192.484375 155.539062 192.40625 L 138.40625 190.605469 C 136.6875 190.425781 134.980469 191.785156 134.601562 193.636719 L 130.871094 211.855469 C 130.683594 212.769531 130.859375 213.683594 131.351562 214.359375 C 131.792969 214.957031 132.449219 215.328125 133.199219 215.410156 Z M 187.574219 218.007812 C 187.101562 220.320312 185.03125 222.050781 182.847656 222.050781 C 182.703125 222.050781 182.5625 222.042969 182.417969 222.027344 L 165.285156 220.230469 C 164.179688 220.113281 163.214844 219.558594 162.5625 218.671875 C 161.859375 217.714844 161.605469 216.441406 161.863281 215.183594 L 165.597656 196.964844 C 166.101562 194.5 168.414062 192.695312 170.75 192.945312 L 187.882812 194.742188 C 188.992188 194.859375 189.957031 195.410156 190.605469 196.296875 C 191.308594 197.257812 191.5625 198.527344 191.304688 199.785156 Z M 187.753906 195.984375 L 170.621094 194.183594 C 168.90625 194.007812 167.199219 195.363281 166.820312 197.214844 L 163.085938 215.4375 C 162.898438 216.347656 163.074219 217.261719 163.570312 217.9375 C 164.011719 218.535156 164.664062 218.910156 165.417969 218.988281 L 182.546875 220.789062 C 184.265625 220.964844 185.972656 219.609375 186.351562 217.757812 L 190.085938 199.535156 C 190.273438 198.621094 190.097656 197.710938 189.601562 197.035156 C 189.164062 196.4375 188.507812 196.0625 187.753906 195.984375 Z M 180.554688 252.082031 C 180.078125 254.390625 178.015625 256.117188 175.828125 256.117188 C 175.6875 256.117188 175.542969 256.109375 175.398438 256.097656 L 158.265625 254.296875 C 157.160156 254.179688 156.191406 253.628906 155.542969 252.738281 C 154.839844 251.78125 154.585938 250.515625 154.84375 249.261719 L 158.574219 231.039062 C 159.082031 228.578125 161.394531 226.769531 163.730469 227.019531 L 180.863281 228.820312 C 181.972656 228.933594 182.941406 229.488281 183.589844 230.371094 C 184.289062 231.328125 184.542969 232.601562 184.285156 233.863281 Z M 180.734375 230.058594 L 163.601562 228.257812 C 163.496094 228.25 163.394531 228.242188 163.292969 228.242188 C 161.683594 228.242188 160.152344 229.550781 159.796875 231.289062 L 156.066406 249.511719 C 155.878906 250.421875 156.054688 251.332031 156.546875 252.003906 C 156.988281 252.605469 157.644531 252.976562 158.398438 253.054688 L 175.527344 254.855469 C 177.246094 255.035156 178.953125 253.679688 179.328125 251.832031 L 183.0625 233.613281 C 183.25 232.695312 183.074219 231.785156 182.582031 231.109375 C 182.144531 230.511719 181.488281 230.140625 180.734375 230.058594 Z M 126.359375 227.65625 C 126.863281 225.195312 129.175781 223.386719 131.515625 223.636719 L 148.648438 225.433594 C 149.753906 225.550781 150.722656 226.101562 151.371094 226.988281 C 152.074219 227.949219 152.328125 229.21875 152.070312 230.480469 L 148.335938 248.699219 C 147.863281 251.007812 145.796875 252.734375 143.613281 252.734375 C 143.46875 252.734375 143.328125 252.726562 143.183594 252.710938 L 126.050781 250.914062 C 124.941406 250.796875 123.972656 250.242188 123.324219 249.359375 C 122.625 248.402344 122.371094 247.132812 122.625 245.875 Z M 126.179688 249.671875 L 143.3125 251.472656 C 145.03125 251.648438 146.734375 250.296875 147.113281 248.449219 L 150.847656 230.226562 C 151.035156 229.3125 150.859375 228.402344 150.363281 227.726562 C 149.925781 227.128906 149.269531 226.753906 148.515625 226.675781 L 131.382812 224.875 C 131.28125 224.863281 131.179688 224.859375 131.078125 224.859375 C 129.46875 224.859375 127.9375 226.164062 127.582031 227.90625 L 123.847656 246.125 C 123.660156 247.039062 123.835938 247.949219 124.332031 248.621094 C 124.769531 249.21875 125.425781 249.59375 126.179688 249.671875 Z M 207.621094 259.480469 L 190.488281 257.679688 C 189.378906 257.566406 188.410156 257.011719 187.761719 256.125 C 187.0625 255.171875 186.808594 253.902344 187.066406 252.644531 L 190.800781 234.425781 C 191.304688 231.960938 193.617188 230.160156 195.953125 230.402344 L 213.085938 232.203125 C 214.195312 232.320312 215.160156 232.871094 215.808594 233.757812 C 216.511719 234.71875 216.765625 235.988281 216.507812 237.246094 L 212.777344 255.46875 C 212.304688 257.777344 210.238281 259.503906 208.050781 259.503906 C 207.910156 259.503906 207.765625 259.496094 207.621094 259.480469 Z M 211.554688 255.21875 L 215.285156 236.996094 C 215.472656 236.082031 215.296875 235.171875 214.804688 234.496094 C 214.363281 233.898438 213.707031 233.523438 212.957031 233.445312 L 195.824219 231.644531 C 195.71875 231.632812 195.617188 231.628906 195.515625 231.628906 C 193.90625 231.628906 192.378906 232.933594 192.019531 234.675781 L 188.289062 252.898438 C 188.101562 253.808594 188.277344 254.71875 188.769531 255.390625 C 189.207031 255.988281 189.863281 256.363281 190.621094 256.441406 L 207.75 258.242188 C 209.472656 258.421875 211.175781 257.066406 211.554688 255.21875 Z M 201.03125 293.773438 C 200.886719 293.773438 200.742188 293.765625 200.601562 293.75 L 183.46875 291.953125 C 182.359375 291.835938 181.394531 291.28125 180.746094 290.398438 C 180.042969 289.4375 179.789062 288.167969 180.046875 286.910156 L 183.777344 268.6875 C 184.285156 266.226562 186.597656 264.417969 188.933594 264.667969 L 206.066406 266.46875 C 207.171875 266.582031 208.140625 267.136719 208.789062 268.023438 C 209.492188 268.980469 209.746094 270.253906 209.488281 271.511719 L 205.757812 289.730469 C 205.28125 292.042969 203.214844 293.773438 201.03125 293.773438 Z M 205.9375 267.707031 L 188.804688 265.90625 C 187.085938 265.730469 185.378906 267.085938 185 268.9375 L 181.269531 287.160156 C 181.082031 288.074219 181.257812 288.984375 181.75 289.660156 C 182.191406 290.257812 182.847656 290.632812 183.597656 290.710938 L 200.730469 292.511719 C 202.449219 292.691406 204.15625 291.332031 204.535156 289.480469 L 208.265625 271.257812 C 208.453125 270.347656 208.277344 269.433594 207.78125 268.757812 C 207.34375 268.160156 206.6875 267.785156 205.9375 267.707031 Z M 156.710938 261.476562 L 173.84375 263.277344 C 174.949219 263.394531 175.917969 263.945312 176.566406 264.832031 C 177.269531 265.789062 177.523438 267.0625 177.265625 268.320312 L 173.53125 286.542969 C 173.058594 288.851562 170.992188 290.585938 168.804688 290.585938 C 168.664062 290.585938 168.519531 290.578125 168.375 290.5625 L 151.246094 288.761719 C 150.140625 288.644531 149.171875 288.09375 148.523438 287.207031 C 147.820312 286.246094 147.5625 284.976562 147.820312 283.71875 L 151.554688 265.496094 C 152.058594 263.035156 154.375 261.226562 156.710938 261.476562 Z M 151.375 287.523438 L 168.507812 289.320312 C 170.226562 289.5 171.929688 288.140625 172.308594 286.292969 L 176.042969 268.070312 C 176.230469 267.15625 176.054688 266.246094 175.558594 265.570312 C 175.121094 264.96875 174.464844 264.597656 173.714844 264.519531 L 156.582031 262.71875 C 156.476562 262.707031 156.375 262.703125 156.273438 262.703125 C 154.664062 262.703125 153.132812 264.007812 152.777344 265.746094 L 149.042969 283.96875 C 148.859375 284.882812 149.035156 285.792969 149.53125 286.46875 C 149.96875 287.070312 150.625 287.441406 151.375 287.523438 Z M 151.375 287.523438 " fill-opacity="1" fill-rule="nonzero"/></g></svg>