<?xml version="1.0" encoding="UTF-8"?><svg id="Layer_1" xmlns="http://www.w3.org/2000/svg" viewBox="0 0 414.21 93.51"><defs><style>.cls-1{fill:#ff6161;}.cls-2{fill:#1d3632;}.cls-3{fill:#18b08c;}.cls-4{fill:#275b54;}</style></defs><g><path class="cls-2" d="m197.02,2.87c0-1.61,1.21-2.35,2.87-2.35,1.49,0,2.64.75,2.64,2.35v30.89c0,8.27-4.54,12.63-12.4,12.63-3.67,0-6.37-.98-8.27-2.35-2.01-1.49-3.16-3.39-3.85-5.11-.11-.35-.17-.63-.17-.98,0-1.21.86-2.18,1.89-2.53.4-.11.86-.23,1.32-.23.98,0,1.89.4,2.35,1.55.8,2.24,2.53,4.65,6.66,4.65,4.54,0,6.95-2.81,6.95-8.15V2.87Z"/><path class="cls-2" d="m212.41,2.87c0-1.61,1.15-2.35,2.81-2.35,1.49,0,2.7.75,2.7,2.35v26.07c0,8.44,4.13,12.63,11.89,12.63s12.06-4.25,12.06-12.69V2.87c0-1.61,1.15-2.35,2.76-2.35s2.76.75,2.76,2.35v26.24c0,11.37-6.14,17.46-17.51,17.46s-17.46-5.91-17.46-17.46V2.87Z"/><path class="cls-2" d="m286.25,2.87c0-1.61,1.15-2.35,2.76-2.35s2.7.75,2.7,2.35v39.45c0,2.24-1.15,3.62-3.45,3.62-2.47,0-3.39-.98-4.82-3.27l-15.22-24.63c-2.3-3.67-5.17-9.3-6.49-12.17.35,3.67.8,11.66.8,20.1v17.63c0,1.55-1.15,2.35-2.7,2.35s-2.76-.8-2.76-2.35V3.96c0-2.12,1.38-3.45,3.62-3.45,2.58,0,3.56,1.03,4.65,2.76l14.47,23.48c2.64,4.31,5.86,10.45,7.35,13.66-.34-3.56-.92-11.88-.92-20.15V2.87Z"/><path class="cls-2" d="m300.49,5.91c-1.44,0-2.24-1.15-2.24-2.47s.8-2.58,2.18-2.58h31.64c1.38,0,2.18,1.21,2.18,2.58s-.86,2.47-2.18,2.47h-13.03v37.67c0,1.55-1.21,2.35-2.76,2.35s-2.76-.8-2.76-2.35V5.91h-13.03Z"/><path class="cls-2" d="m375.31,23.25c0,14.12-7.69,23.25-19.98,23.25s-20.1-9.07-20.1-23.31S342.98,0,355.33,0s19.98,9.07,19.98,23.25Zm-34.39,0c0,11.08,5.63,18.26,14.41,18.26s14.3-7.06,14.3-18.6c0-10.85-5.57-17.97-14.3-17.97s-14.41,7.23-14.41,18.32Z"/><path class="cls-2" d="m400.35,20.27c8.96,1.89,13.84,4.94,13.84,13.26,0,7.41-5.68,12.98-15.96,12.98-13.09,0-15.79-6.78-17.17-11.43-.06-.29-.11-.52-.11-.75,0-1.26.98-2.12,2.18-2.41.34-.06.63-.11.98-.11,1.09,0,2.18.52,2.53,1.72,1.03,3.85,2.93,8.15,11.31,8.15,6.54,0,10.62-3.16,10.62-8.1s-2.58-6.78-9.36-8.15l-4.59-.98c-8.61-1.78-12.52-5.05-12.52-12.57C382.09,5.86,386.56,0,397.36,0s13.9,5.51,15.16,9.65c.11.29.17.57.17.86,0,1.21-.98,2.07-2.13,2.3-.29.06-.63.11-.98.11-1.03,0-2.07-.46-2.53-1.67-.92-3.27-3.33-6.49-9.7-6.49s-9.7,3.33-9.7,7.12c0,4.13,2.01,6.26,8.44,7.52l4.25.86Z"/></g><g><path class="cls-2" d="m181.81,92.09c-.3.84-.93,1.18-1.64,1.18-.3,0-.55-.04-.84-.13-.84-.21-1.48-.93-1.48-1.73,0-.25.04-.46.13-.72l11.47-28.81c.55-1.43,1.6-1.98,2.91-1.98s2.45.55,3,1.98l11.47,28.89c.13.25.17.46.17.72,0,.84-.67,1.48-1.52,1.69-.25.08-.51.13-.76.13-.76,0-1.43-.38-1.73-1.18l-3.33-8.73h-14.59l-3.25,8.69Zm16.58-12.23l-4.68-12.27c-.46-1.22-.93-2.57-1.31-4.01-.38,1.43-.8,2.78-1.31,4.05l-4.77,12.23h12.06Z"/><path class="cls-2" d="m212.09,64.71c0-3.25,1.31-4.55,4.3-4.55h7.51c9.32,0,14.8,5.9,14.8,16.07s-5.57,16.79-14.8,16.79h-7.51c-2.99,0-4.3-1.31-4.3-4.51v-23.79Zm4.01,23.2c0,.97.51,1.43,1.35,1.43h6.24c6.83,0,10.84-4.85,10.84-13.08s-3.75-12.48-10.71-12.48h-6.33c-.8,0-1.39.51-1.39,1.39v22.73Z"/><path class="cls-2" d="m248.57,88c0,.97.63,1.35,1.56,1.35h15.1c1.1,0,1.69.76,1.69,1.81s-.59,1.86-1.69,1.86h-16.32c-3,0-4.3-1.31-4.3-4.51v-23.79c0-3.25,1.31-4.55,4.3-4.55h15.94c1.1,0,1.69.76,1.69,1.81s-.59,1.86-1.69,1.86h-14.85c-1.01,0-1.43.46-1.43,1.48v8.73h14.38c1.05,0,1.64.76,1.64,1.81,0,.97-.63,1.77-1.64,1.77h-14.38v10.38Z"/><path class="cls-2" d="m272.02,61.72c0-1.27.88-1.81,2.02-1.81s2.03.55,2.03,1.77v26.07c0,.97.55,1.48,1.52,1.48h14.93c1.1,0,1.73.8,1.73,1.86s-.63,1.94-1.73,1.94h-16.2c-3,0-4.3-1.31-4.3-4.51v-26.78Z"/><path class="cls-2" d="m300.24,92.09c-.3.84-.93,1.18-1.65,1.18-.29,0-.55-.04-.84-.13-.84-.21-1.48-.93-1.48-1.73,0-.25.04-.46.13-.72l11.47-28.81c.55-1.43,1.6-1.98,2.91-1.98s2.45.55,3,1.98l11.47,28.89c.13.25.17.46.17.72,0,.84-.67,1.48-1.52,1.69-.25.08-.51.13-.76.13-.76,0-1.43-.38-1.73-1.18l-3.33-8.73h-14.59l-3.25,8.69Zm16.58-12.23l-4.68-12.27c-.46-1.22-.93-2.57-1.31-4.01-.38,1.43-.8,2.78-1.31,4.05l-4.77,12.23h12.06Z"/><path class="cls-2" d="m351.99,61.64c0-1.18.84-1.73,2.02-1.73s1.98.55,1.98,1.73v28.98c0,1.65-.84,2.66-2.53,2.66-1.81,0-2.49-.72-3.54-2.4l-11.18-18.09c-1.69-2.7-3.8-6.83-4.77-8.94.25,2.7.59,8.56.59,14.76v12.95c0,1.14-.84,1.73-1.98,1.73s-2.02-.59-2.02-1.73v-29.1c0-1.56,1.01-2.53,2.66-2.53,1.9,0,2.61.76,3.42,2.02l10.63,17.25c1.94,3.16,4.3,7.68,5.4,10.04-.25-2.62-.67-8.73-.67-14.81v-12.78Z"/><path class="cls-2" d="m362.45,63.87c-1.05,0-1.65-.84-1.65-1.81s.59-1.9,1.6-1.9h23.24c1.01,0,1.6.89,1.6,1.9s-.63,1.81-1.6,1.81h-9.58v27.67c0,1.14-.89,1.73-2.02,1.73s-2.02-.59-2.02-1.73v-27.67h-9.57Z"/><path class="cls-2" d="m395.86,88c0,.97.63,1.35,1.56,1.35h15.1c1.1,0,1.69.76,1.69,1.81s-.59,1.86-1.69,1.86h-16.32c-3,0-4.3-1.31-4.3-4.51v-23.79c0-3.25,1.31-4.55,4.3-4.55h15.94c1.1,0,1.69.76,1.69,1.81s-.59,1.86-1.69,1.86h-14.85c-1.01,0-1.43.46-1.43,1.48v8.73h14.38c1.06,0,1.65.76,1.65,1.81,0,.97-.63,1.77-1.65,1.77h-14.38v10.38Z"/></g><g><path class="cls-3" d="m18.79,90.36c1.19,2.29,3.47,3.11,6.06,3.12,11.54.06,32.76,0,44.3,0,.62,0,1.04-.55.8-1.06l-19.79-41.71c-.26-.55-.68-1.54-.92-2.1-.81-1.85-1.75-2.61-3.81-2.61-10.95,0-31.17-.03-42.12,0-2.92,0-3.88,2.76-3,4.45l18.47,39.91Z"/><path class="cls-4" d="m171.85,90.08L145.78,3.47c-.61-2.18-1.61-3.47-3.89-3.47h-47.46l12.56,41.96h-3.06c-3.08,0-3.67.36-4.89,3.7l-4.56,15.6c-.51,1.71-.39,3.66,2.29,3.7h17.1l7.26,24.26c.9,2.71,1.91,4.26,4.26,4.26h43.9c1.77,0,3.05-1.71,2.54-3.41Z"/><path class="cls-1" d="m80.97,90.08c-.4,1.94-2.12,3.4-4.18,3.4H29.33L56.04,4.26C57.02,1.45,57.82.01,60.86,0h46.9l-26.8,90.08Z"/></g></svg>